<svg width="17" height="17" viewBox="0 0 17 17" fill="none" xmlns="http://www.w3.org/2000/svg">
<g id="LinkedIn">
<path id="Vector" d="M3.77054 5.49121H0.28125V16.6183H3.77054V5.49121Z" fill="white"/>
<path id="Vector_2" d="M13.2093 5.25001C13.0806 5.23393 12.944 5.22589 12.8073 5.21785C10.8536 5.13745 9.75215 6.29519 9.36624 6.79366C9.26172 6.93033 9.21348 7.01073 9.21348 7.01073V5.52336H5.87695V16.6505H9.21348H9.36624C9.36624 15.5169 9.36624 14.3913 9.36624 13.2577C9.36624 12.6467 9.36624 12.0356 9.36624 11.4246C9.36624 10.6689 9.30996 9.86487 9.68783 9.17345C10.0094 8.59458 10.5883 8.30514 11.2395 8.30514C13.1691 8.30514 13.2093 10.0498 13.2093 10.2106C13.2093 10.2186 13.2093 10.2267 13.2093 10.2267V16.6987H16.6986V9.43876C16.6986 6.95445 15.4363 5.4912 13.2093 5.25001Z" fill="white"/>
<path id="Vector_3" d="M2.02603 4.05207C3.14498 4.05207 4.05207 3.14499 4.05207 2.02604C4.05207 0.907087 3.14498 0 2.02603 0C0.907084 0 0 0.907087 0 2.02604C0 3.14499 0.907084 4.05207 2.02603 4.05207Z" fill="white"/>
</g>
</svg>
