<svg width="1328" height="805" viewBox="0 0 1328 805" fill="none" xmlns="http://www.w3.org/2000/svg">
<g opacity="0.5">
<path d="M3.44379 400.919L1327 -1.0188L1327 802.856L3.44379 400.919Z" stroke="#323135" stroke-opacity="0.2" stroke-width="2"/>
<path d="M1.03065 400.919L100.543 5.07935L100.543 796.758L1.03065 400.919Z" stroke="#323135" stroke-width="2"/>
<path d="M1.1386 401L219 0.927368L219 801.073L1.1386 401Z" stroke="#323135" stroke-width="2"/>
<path d="M1.00585 401L43.0001 15.4179L43 786.582L1.00585 401Z" stroke="#323135" stroke-width="2"/>
<path d="M1.33796 400.919L357.576 -0.36731L357.576 802.205L357.576 802.205L1.33796 400.919Z" stroke="#323135" stroke-width="2"/>
<path d="M1.83777 400.919L620.957 -1.1582L620.957 802.996L1.83777 400.919Z" stroke="#323135" stroke-opacity="0.8" stroke-width="2"/>
<path d="M2.65558 400.919L992.226 -1.51386L992.226 803.351L2.65558 400.919Z" stroke="#323135" stroke-opacity="0.4" stroke-width="2"/>
</g>
</svg>
