<svg width="80" height="30" viewBox="0 0 80 30" fill="none" xmlns="http://www.w3.org/2000/svg">
<g id="logo_verity_black">
<g id="Group">
<path id="Vector" d="M25.3673 7.97461C20.9522 7.97461 17.7734 10.5353 17.7734 14.9503C17.7734 19.3653 20.9522 21.926 25.3673 21.926C31.1068 21.926 32.4313 17.7759 32.4313 17.7759H28.811C28.811 17.7759 27.8397 19.277 25.3673 19.277C21.482 19.277 21.0405 16.0099 21.0405 16.0099H32.8728C32.8728 16.0099 32.9611 15.5684 32.9611 14.9503C32.9611 10.6236 29.694 7.97461 25.3673 7.97461ZM21.1288 13.7141C21.1288 13.7141 21.5703 10.7119 25.3673 10.7119C29.2525 10.7119 29.6057 13.7141 29.6057 13.7141H21.1288Z" fill="black"/>
<path id="Vector_2" d="M47.2684 2.5C46.2088 2.5 45.4141 3.1181 45.4141 4.0894C45.4141 5.06071 46.1205 5.67881 47.2684 5.67881C48.4163 5.67881 49.1227 5.06071 49.1227 4.0894C49.1227 3.1181 48.4163 2.5 47.2684 2.5Z" fill="black"/>
<path id="Vector_3" d="M48.8561 8.23926H45.7656V21.7492H48.8561V8.23926Z" fill="black"/>
<path id="Vector_4" d="M74.1963 8.23926L70.1345 18.4821H69.9579L65.4546 8.23926H62.1875L68.5451 22.279L68.4568 22.5439C67.7504 24.2216 66.9557 24.6631 65.8961 24.6631C64.9248 24.6631 62.5407 24.6631 62.5407 24.6631V27.4887H66.161C68.8983 27.4887 70.4877 25.2812 71.6356 22.5439L77.5517 8.23926H74.1963Z" fill="black"/>
<path id="Vector_5" d="M55.923 16.4514V10.8885H60.9561V8.23951H55.923V5.2373H53.8921L50.625 8.94591V10.8885H52.8325V16.8046C52.8325 20.5132 54.157 21.926 58.0422 21.926C59.6316 21.926 61.3093 21.7494 61.3093 21.7494V19.0121C61.3093 19.0121 59.455 19.1004 58.3071 19.1004C56.9826 19.1004 55.923 18.7472 55.923 16.4514Z" fill="black"/>
<path id="Vector_6" d="M37.9108 9.29886V8.23926H34.8203V21.7492H37.9108V13.1841C38.3523 11.8596 39.5885 10.8883 41.7077 10.8883H44.0918V8.23926H41.9726C39.6768 8.23926 38.5289 8.85736 37.9108 9.29886Z" fill="black"/>
<path id="Vector_7" d="M10.0938 19.3651H10.0055L5.76711 8.23926H2.5L7.79801 21.7492H12.3013L17.5993 8.23926H14.4205L10.0938 19.3651Z" fill="black"/>
</g>
</g>
</svg>
