<svg width="86" height="32" viewBox="0 0 86 32" fill="none" xmlns="http://www.w3.org/2000/svg">
<path d="M27.0433 8.50391C22.3375 8.50391 18.9492 11.2333 18.9492 15.9392C18.9492 20.6451 22.3375 23.3745 27.0433 23.3745C33.161 23.3745 34.5727 18.951 34.5727 18.951H30.7139C30.7139 18.951 29.6786 20.551 27.0433 20.551C22.9022 20.551 22.4316 17.0686 22.4316 17.0686H35.0433C35.0433 17.0686 35.1375 16.598 35.1375 15.9392C35.1375 11.3274 31.6551 8.50391 27.0433 8.50391ZM22.5257 14.6216C22.5257 14.6216 22.9963 11.4216 27.0433 11.4216C31.1845 11.4216 31.561 14.6216 31.561 14.6216H22.5257Z" fill="white"/>
<path d="M50.3847 2.66797C49.2553 2.66797 48.4082 3.32679 48.4082 4.36209C48.4082 5.39738 49.1611 6.0562 50.3847 6.0562C51.6082 6.0562 52.3611 5.39738 52.3611 4.36209C52.3611 3.32679 51.6082 2.66797 50.3847 2.66797Z" fill="white"/>
<path d="M52.0783 8.78516H48.7842V23.1852H52.0783V8.78516Z" fill="white"/>
<path d="M79.0905 8.78516L74.7611 19.7028H74.5729L69.7729 8.78516H66.2905L73.067 23.7499L72.9729 24.0322C72.2199 25.8204 71.3729 26.291 70.2435 26.291C69.2082 26.291 66.667 26.291 66.667 26.291V29.3028H70.5258C73.4435 29.3028 75.1376 26.9499 76.3611 24.0322L82.667 8.78516H79.0905Z" fill="white"/>
<path d="M59.6075 17.5389V11.6095H64.9722V8.78594H59.6075V5.58594H57.4428L53.9604 9.53888V11.6095H56.3134V17.9153C56.3134 21.8683 57.7252 23.3742 61.8663 23.3742C63.5604 23.3742 65.3487 23.1859 65.3487 23.1859V20.2683C65.3487 20.2683 63.3722 20.3624 62.1487 20.3624C60.7369 20.3624 59.6075 19.9859 59.6075 17.5389Z" fill="white"/>
<path d="M40.4079 9.91457V8.78516H37.1138V23.1852H40.4079V14.0557C40.8785 12.644 42.1961 11.6087 44.4549 11.6087H46.9961V8.78516H44.7373C42.2902 8.78516 41.0667 9.44398 40.4079 9.91457Z" fill="white"/>
<path d="M10.7611 20.644H10.667L6.14935 8.78516H2.66699L8.31405 23.1852H13.1141L18.7611 8.78516H15.3729L10.7611 20.644Z" fill="white"/>
</svg>
