<svg width="1440" height="979" viewBox="0 0 1440 979" fill="none" xmlns="http://www.w3.org/2000/svg">
<g clip-path="url(#clip0_341_898)">
<path opacity="0.1" d="M1423 748V230C1423 69.8374 1293.16 -60 1133 -60L308 -60C147.837 -60 18 69.8374 18 230V748C18 908.163 147.837 1038 308 1038H1133C1293.16 1038 1423 908.163 1423 748Z" stroke="#323135" stroke-width="2" stroke-miterlimit="10"/>
<path opacity="0.2" d="M1353 748V230C1353 108.497 1254.5 10 1133 10L308 10C186.497 10 88 108.497 88 230V748C88 869.503 186.497 968 308 968L1133 968C1254.5 968 1353 869.503 1353 748Z" stroke="#323135" stroke-width="2" stroke-miterlimit="10"/>
<path opacity="0.3" d="M1293 748V230C1293 141.634 1221.37 70 1133 70L308 70C219.634 70 148 141.634 148 230V748C148 836.366 219.634 908 308 908L1133 908C1221.37 908 1293 836.366 1293 748Z" stroke="#323135" stroke-width="2" stroke-miterlimit="10"/>
<path opacity="0.4" d="M1243 748V230C1243 169.249 1193.75 120 1133 120L308 120C247.249 120 198 169.249 198 230V748C198 808.751 247.249 858 308 858L1133 858C1193.75 858 1243 808.751 1243 748Z" stroke="#323135" stroke-width="2" stroke-miterlimit="10"/>
<path opacity="0.5" d="M1203 748V230C1203 191.34 1171.66 160 1133 160L308 160C269.34 160 238 191.34 238 230V748C238 786.66 269.34 818 308 818H1133C1171.66 818 1203 786.66 1203 748Z" stroke="#323135" stroke-width="2" stroke-miterlimit="10"/>
<path opacity="0.65" d="M1173 748V230C1173 207.909 1155.09 190 1133 190L308 190C285.909 190 268 207.909 268 230V748C268 770.091 285.909 788 308 788H1133C1155.09 788 1173 770.091 1173 748Z" stroke="#323135" stroke-width="2" stroke-miterlimit="10"/>
<path d="M308 1138C255.32 1138 204.03 1127.56 155.56 1106.96C109.29 1087.3 67.8 1059.31 32.25 1023.75C-3.31 988.19 -31.3 946.7 -50.96 900.44C-71.55 851.97 -82 800.68 -82 748V230C-82 177.32 -71.56 126.03 -50.96 77.56C-31.3 31.29 -3.31 -10.2 32.25 -45.75C67.81 -81.31 109.3 -109.3 155.56 -128.96C204.03 -149.56 255.32 -160 308 -160H1133C1185.68 -160 1236.97 -149.56 1285.44 -128.96C1331.71 -109.3 1373.2 -81.31 1408.75 -45.75C1444.31 -10.19 1472.3 31.3 1491.96 77.56C1512.55 126.03 1523 177.32 1523 230V748C1523 800.68 1512.56 851.97 1491.96 900.44C1472.3 946.71 1444.31 988.2 1408.75 1023.75C1373.19 1059.31 1331.7 1087.3 1285.44 1106.96C1236.97 1127.55 1185.68 1138 1133 1138H308Z" stroke="#323135" stroke-width="2" stroke-miterlimit="10"/>
<path opacity="0.85" d="M1133 210H308C296.954 210 288 218.954 288 230V748C288 759.046 296.954 768 308 768H1133C1144.05 768 1153 759.046 1153 748V230C1153 218.954 1144.05 210 1133 210Z" stroke="#323135" stroke-width="2" stroke-miterlimit="10"/>
</g>
<defs>
<clipPath id="clip0_341_898">
<rect width="1607" height="1300" fill="white" transform="translate(-83 -161)"/>
</clipPath>
</defs>
</svg>
