<svg width="342" height="106" viewBox="0 0 342 106" fill="none" xmlns="http://www.w3.org/2000/svg">
<g clip-path="url(#clip0_1187_18487)">
<g opacity="0.3">
<path d="M136.004 62.0142C135.957 62.1364 135.897 62.2898 135.821 62.4712C135.608 62.9818 135.274 63.7136 134.792 64.593C133.828 66.352 132.27 68.6994 129.903 71.0474C125.173 75.7382 117.192 80.4468 104.189 80.4468C94.1804 80.4468 85.5973 77.5383 79.5198 72.1463C73.4461 66.7576 69.8517 58.8683 69.8517 48.8553C69.8517 38.8423 73.4461 30.953 79.5198 25.5643C85.5973 20.1723 94.1804 17.2638 104.189 17.2638C113.992 17.2638 122.576 20.2713 128.706 25.7154C134.833 31.1566 138.525 39.0472 138.525 48.8553C138.525 50.2544 138.426 51.4536 138.326 52.3025C138.276 52.7268 138.226 53.0632 138.189 53.2929C138.181 53.3462 138.173 53.3937 138.166 53.4353H84.4775H84.1825L84.2219 53.7276L84.4775 53.6932C84.2219 53.7276 84.222 53.7278 84.222 53.7281L84.2221 53.7289L84.2225 53.7315L84.2238 53.7408L84.2289 53.7752C84.2335 53.8051 84.2405 53.8486 84.2504 53.905C84.27 54.0177 84.301 54.1816 84.3466 54.3895C84.4379 54.805 84.5879 55.3965 84.8236 56.1053C85.2949 57.5223 86.1102 59.4123 87.4872 61.3034C90.2486 65.0959 95.2522 68.8679 104.189 68.8679C109.876 68.8679 113.848 67.1364 116.402 65.3963C117.677 64.527 118.597 63.6567 119.199 63.0018C119.5 62.6743 119.722 62.4004 119.87 62.2073C119.929 62.1292 119.977 62.0642 120.012 62.0142H136.004ZM84.8798 43.2111L84.6246 43.1736L84.5813 43.469H84.8798H123.497H123.787L123.753 43.181L123.497 43.2111C123.753 43.181 123.753 43.1808 123.753 43.1805L123.753 43.1798L123.753 43.1772L123.752 43.1685L123.748 43.1365C123.744 43.1087 123.738 43.0684 123.729 43.0163C123.713 42.9121 123.686 42.7608 123.646 42.5692C123.566 42.186 123.431 41.6409 123.214 40.9879C122.78 39.6825 122.014 37.942 120.685 36.201C118.02 32.7082 113.116 29.2458 104.189 29.2458C95.4599 29.2458 90.5577 32.7097 87.844 36.1991C86.491 37.9389 85.6872 39.6781 85.2214 40.9826C84.9885 41.6351 84.8397 42.1798 84.749 42.5627C84.7037 42.7541 84.6728 42.9053 84.6532 43.0093C84.6434 43.0613 84.6363 43.1016 84.6317 43.1293L84.6265 43.1612L84.6252 43.1699L84.6248 43.1724L84.6247 43.1732C84.6247 43.1734 84.6246 43.1736 84.8798 43.2111Z" stroke="#323135" stroke-width="0.515815"/>
<path d="M195.756 -0.735355C195.756 -2.87648 196.627 -4.61811 198.077 -5.82885C199.531 -7.043 201.581 -7.73428 203.946 -7.73428C206.516 -7.73428 208.562 -7.04092 209.962 -5.83164C211.357 -4.62598 212.135 -2.88615 212.135 -0.735355C212.135 1.41544 211.357 3.15527 209.962 4.36093C208.562 5.57022 206.516 6.26357 203.946 6.26357C201.375 6.26357 199.329 5.57022 197.929 4.36093C196.534 3.15527 195.756 1.41544 195.756 -0.735355Z" stroke="#323135" stroke-width="0.515815"/>
<path d="M197.365 79.6361V18.4688H210.929V79.6361H197.365Z" stroke="#323135" stroke-width="0.515815"/>
<path d="M308.134 65.2351H308.309L308.374 65.0721L326.813 18.4688H341.539L314.735 83.4229C309.508 95.9146 302.327 105.841 290.032 105.841H273.797V93.4561H273.8H273.811H273.823H273.834H273.845H273.857H273.869H273.881H273.894H273.906H273.919H273.932H273.945H273.959H273.972H273.986H274H274.015H274.029H274.044H274.058H274.073H274.089H274.104H274.12H274.135H274.151H274.168H274.184H274.201H274.217H274.234H274.251H274.269H274.286H274.304H274.322H274.34H274.358H274.377H274.395H274.414H274.433H274.452H274.471H274.491H274.511H274.53H274.551H274.571H274.591H274.612H274.632H274.653H274.674H274.696H274.717H274.739H274.76H274.782H274.804H274.827H274.849H274.872H274.894H274.917H274.94H274.964H274.987H275.011H275.034H275.058H275.082H275.106H275.131H275.155H275.18H275.205H275.23H275.255H275.28H275.305H275.331H275.357H275.383H275.409H275.435H275.461H275.487H275.514H275.541H275.568H275.595H275.622H275.649H275.677H275.704H275.732H275.76H275.788H275.816H275.844H275.872H275.901H275.93H275.958H275.987H276.016H276.046H276.075H276.104H276.134H276.164H276.193H276.223H276.253H276.284H276.314H276.344H276.375H276.405H276.436H276.467H276.498H276.529H276.561H276.592H276.624H276.655H276.687H276.719H276.751H276.783H276.815H276.847H276.879H276.912H276.945H276.977H277.01H277.043H277.076H277.109H277.142H277.176H277.209H277.243H277.276H277.31H277.344H277.378H277.412H277.446H277.48H277.514H277.549H277.583H277.618H277.653H277.687H277.722H277.757H277.792H277.827H277.862H277.898H277.933H277.968H278.004H278.04H278.075H278.111H278.147H278.183H278.219H278.255H278.291H278.327H278.364H278.4H278.437H278.473H278.51H278.546H278.583H278.62H278.657H278.694H278.731H278.768H278.805H278.842H278.88H278.917H278.955H278.992H279.03H279.067H279.105H279.143H279.18H279.218H279.256H279.294H279.332H279.37H279.408H279.446H279.485H279.523H279.561H279.6H279.638H279.677H279.715H279.754H279.792H279.831H279.87H279.908H279.947H279.986H280.025H280.064H280.103H280.142H280.181H280.22H280.259H280.298H280.337H280.376H280.416H280.455H280.494H280.534H280.573H280.612H280.652H280.691H280.731H280.77H280.81H280.849H280.889H280.929H280.968H281.008H281.048H281.087H281.127H281.167H281.206H281.246H281.286H281.326H281.366H281.405H281.445H281.485H281.525H281.565H281.605H281.645H281.685H281.725H281.765H281.804H281.844H281.884H281.924H281.964H282.004H282.044H282.084H282.124H282.164H282.204H282.244H282.284H282.324H282.364H282.404H282.444H282.484H282.524H282.563H282.603H282.643H282.683H282.723H282.763H282.803H282.843H282.882H282.922H282.962H283.002H283.041H283.081H283.121H283.161H283.2H283.24H283.28H283.319H283.359H283.398H283.438H283.477H283.517H283.556H283.596H283.635H283.675H283.714H283.753H283.792H283.832H283.871H283.91H283.949H283.988H284.027H284.066H284.105H284.144H284.183H284.222H284.261H284.3H284.339H284.377H284.416H284.455H284.493H284.532H284.57H284.609H284.647H284.685H284.723H284.762H284.8H284.838H284.876H284.914H284.952H284.99H285.028H285.066H285.103H285.141H285.179H285.216H285.254H285.291H285.328H285.366H285.403H285.44H285.477H285.514H285.551H285.588H285.625H285.662H285.698H285.735H285.771H285.808H285.844H285.881H285.917H285.953H285.989H286.025H286.061H286.097H286.133H286.168H286.204H286.24H286.275H286.31H286.346H286.381H286.416H286.451H286.486H286.521H286.556H286.59H286.625H286.659H286.694H286.728H286.762H286.796H286.83H286.864H286.898H286.932H286.965H286.999H287.032H287.066H287.099H287.132H287.165H287.198H287.231H287.263H287.296H287.329H287.361H287.393H287.425H287.457H287.489H287.521H287.553H287.584H287.616H287.647H287.679H287.71H287.741H287.772H287.802H287.833H287.864H287.894H287.924H287.955H287.985H288.015H288.044H288.074H288.104H288.133H288.162H288.192H288.221H288.25H288.278H288.307H288.336H288.364H288.392H288.42H288.448H288.476H288.504H288.531H288.559H288.586H288.613H288.64H288.667H288.694H288.72H288.747H288.773H288.799H288.825C291.278 93.4561 293.45 92.9428 295.418 91.4377C297.379 89.9379 299.111 87.473 300.729 83.6223L300.733 83.6132L300.736 83.6038L301.138 82.3943L301.17 82.2987L301.128 82.2068L272.33 18.4688H286.645L307.093 65.0808L307.161 65.2351H307.329H308.134Z" stroke="#323135" stroke-width="0.515815"/>
<path d="M243.369 30.05H243.111V30.3079V55.7068C243.111 60.9796 244.325 64.0944 246.367 65.8792C248.404 67.6582 251.203 68.0595 254.23 68.0595C256.85 68.0595 260.273 67.9585 263.039 67.8577C264.423 67.8073 265.643 67.7569 266.517 67.7191C266.954 67.7002 267.305 67.6844 267.546 67.6734L267.649 67.6686V79.6633C267.616 79.6667 267.58 79.6703 267.539 79.6743C267.317 79.6963 266.991 79.7277 266.577 79.7654C265.748 79.8409 264.568 79.9415 263.162 80.0422C260.35 80.2435 256.635 80.4447 253.024 80.4447C244.193 80.4447 238.348 78.8331 234.702 75.1786C231.056 71.5242 229.548 65.7672 229.548 57.3195V30.3079V30.05H229.29H219.491V21.5357L234.234 4.76377H243.111V18.2132V18.4711H243.369H266.04V30.05H243.369Z" stroke="#323135" stroke-width="0.515815"/>
<path d="M161.049 23.0488V23.5506L161.457 23.2585C164.229 21.2738 169.406 18.4688 179.811 18.4688H189.207V30.0478H178.604C168.86 30.0478 163.115 34.5349 161.062 40.7064L161.049 40.746V40.7878V79.6361H147.485V18.4688H161.049V23.0488Z" stroke="#323135" stroke-width="0.515815"/>
<path d="M34.5947 69.2667H34.7713L34.8352 69.1021L54.4823 18.4688H68.4094L44.4753 79.6361H24.3119L0.377865 18.4688H14.7059L33.9514 69.1004L34.0146 69.2667H34.1925H34.5947Z" stroke="#323135" stroke-width="0.515815"/>
</g>
</g>
<defs>
<clipPath id="clip0_1187_18487">
<rect width="342" height="106" fill="white"/>
</clipPath>
</defs>
</svg>
